<svg width="88" height="86" viewBox="0 0 88 86" fill="none" xmlns="http://www.w3.org/2000/svg">
<rect width="88" height="85.408" rx="8" fill="#200D0D"/>
<path d="M24 16H64V17H24V16Z" fill="white"/>
<path d="M16 21H72V22H16V21Z" fill="white"/>
<path d="M16 58.592V57.584L17.008 57.296C17.648 57.104 18.048 56.832 18.208 56.48C18.4 56.096 18.496 55.568 18.496 54.896C18.528 53.04 18.544 51.184 18.544 49.328C18.544 47.472 18.544 45.6 18.544 43.712V41.744C18.544 39.888 18.544 38.032 18.544 36.176C18.544 34.32 18.528 32.464 18.496 30.608C18.496 29.936 18.416 29.424 18.256 29.072C18.096 28.688 17.696 28.4 17.056 28.208L16 27.872V26.864H29.44C33.184 26.864 36.064 27.584 38.08 29.024C40.128 30.432 41.152 32.416 41.152 34.976C41.152 36.384 40.592 37.808 39.472 39.248C38.384 40.688 36.704 41.792 34.432 42.56L40.96 55.28C41.504 56.336 42.352 57.056 43.504 57.44L44.416 57.632V58.592H35.92L28.768 43.616H25.312C25.312 45.888 25.312 47.936 25.312 49.76C25.312 51.584 25.328 53.296 25.36 54.896C25.36 55.536 25.456 56.048 25.648 56.432C25.872 56.816 26.288 57.088 26.896 57.248L28.048 57.584V58.592H16ZM25.312 42.224H27.904C30.176 42.224 31.84 41.648 32.896 40.496C33.952 39.344 34.48 37.584 34.48 35.216C34.48 32.848 33.968 31.104 32.944 29.984C31.952 28.832 30.336 28.256 28.096 28.256H25.36C25.36 29.504 25.344 30.784 25.312 32.096C25.312 33.376 25.312 34.832 25.312 36.464C25.312 38.064 25.312 39.984 25.312 42.224Z" fill="white"/>
<path d="M61.4785 59.408C58.3745 59.408 55.5745 58.768 53.0785 57.488C50.5825 56.208 48.5985 54.32 47.1265 51.824C45.6865 49.328 44.9665 46.288 44.9665 42.704C44.9665 40.016 45.3985 37.632 46.2625 35.552C47.1585 33.472 48.3745 31.728 49.9105 30.32C51.4785 28.88 53.2705 27.808 55.2865 27.104C57.3025 26.368 59.4465 26 61.7185 26C63.4785 26 65.1265 26.208 66.6625 26.624C68.1985 27.008 69.6705 27.584 71.0785 28.352L71.2705 34.64H69.9745L67.9585 30.848C67.6385 30.208 67.2865 29.632 66.9025 29.12C66.5505 28.608 66.0865 28.24 65.5105 28.016C64.7105 27.632 63.7665 27.44 62.6785 27.44C60.7905 27.44 59.0625 27.92 57.4945 28.88C55.9585 29.84 54.7265 31.44 53.7985 33.68C52.8705 35.888 52.4065 38.912 52.4065 42.752C52.4065 46.56 52.8385 49.584 53.7025 51.824C54.5985 54.064 55.7985 55.664 57.3025 56.624C58.8065 57.552 60.5025 58.016 62.3905 58.016C63.2545 58.016 63.9585 57.952 64.5025 57.824C65.0465 57.696 65.5905 57.52 66.1345 57.296C66.7745 57.04 67.2705 56.672 67.6225 56.192C67.9745 55.68 68.2785 55.104 68.5345 54.464L70.3585 50.096H71.6545L71.4625 57.008C70.0865 57.776 68.5665 58.368 66.9025 58.784C65.2385 59.2 63.4305 59.408 61.4785 59.408Z" fill="white"/>
<path d="M64 69.408H24V68.408H64V69.408Z" fill="white"/>
<path d="M72 64.408H16V63.408H72V64.408Z" fill="white"/>
</svg>
